<?xml version="1.0" encoding="utf-8"?>
<!-- Generator: Adobe Illustrator 24.0.3, SVG Export Plug-In . SVG Version: 6.00 Build 0)  -->
<svg version="1.1" id="Layer_2_1_" xmlns="http://www.w3.org/2000/svg" xmlns:xlink="http://www.w3.org/1999/xlink" x="0px" y="0px"
	 viewBox="0 0 1000 1000" style="enable-background:new 0 0 1000 1000;" xml:space="preserve">
<style type="text/css">
	.st0{fill:none;stroke:#000000;stroke-width:10;stroke-miterlimit:10;}
	.st1{fill:#FF008E;}
	.st2{fill:#DE0087;}
	.st3{fill:#FF0098;stroke:#000000;stroke-width:4;stroke-miterlimit:10;}
	.st4{font-family:'Roboto-Black';}
	.st5{font-size:170px;}
</style>
<g>
	<path class="st0" d="M439.9,571.8c-0.4-0.2-0.7-0.1-0.7,0.4l7,141.5c0,0.5-0.3,0.9-0.8,1l-281.7,58.4c-0.5,0.1-1-0.1-1.3-0.5
		l-62.8-93.4c-0.3-0.5-0.4-1-0.3-1.5l81-447.7c0.1-0.5,0.3-1,0.6-1.5l61.9-89.2c0.2-0.4,0.7-0.4,1.1-0.2c0,0,0,0,0,0L565,395.9
		c0.2,0.2,0.5,0.2,0.7,0.1c0.1-0.1,0.2-0.2,0.2-0.4l37.2-179.9c0.1-0.5,0.4-1,0.8-1.4L800.3,40.2c0.2-0.2,0.6-0.2,0.9,0
		c0.1,0.1,0.1,0.1,0.1,0.2l71.3,138.5c0.2,0.5,0.4,1,0.4,1.6l27.6,529.1c0,0.5-0.3,1-0.7,1.2l-120,62.1c-0.5,0.2-1,0.2-1.5,0
		L439.9,571.8z"/>
	<title>nerdwise-logo</title>
	<path class="st1" d="M100.1,679.3c-0.3-0.5-0.4-1-0.3-1.5l80.7-448.2c0.1-0.5,0.3-1.1,0.6-1.5l62-88.6c0.2-0.4,0.7-0.4,1.1-0.2
		c0,0,0,0,0.1,0l538.5,430.8c0.4,0.3,0.7,0.2,0.7-0.3l17.9-529.1c0-0.5,0.2-0.5,0.4-0.1l71.2,138c0.2,0.5,0.4,1,0.4,1.6l26.9,529.1
		c0,0.5-0.3,1-0.7,1.2l-120,62.2c-0.5,0.2-1,0.2-1.5,0L203.8,431.6c-0.2-0.2-0.5-0.2-0.7,0.1c-0.1,0.1-0.1,0.2-0.1,0.3l-40.2,340.2
		c-0.1,0.5-0.3,0.5-0.6,0.1L100.1,679.3z"/>
	<path class="st2" d="M566.3,397c-0.4-0.3-0.6-0.8-0.5-1.3l37.5-179.5c0.1-0.5,0.4-1,0.8-1.4L800.7,40.4c0.3-0.3,0.6-0.2,0.6,0.3
		l-17.9,529.1c0,0.5-0.3,0.6-0.7,0.3L566.3,397z"/>
	<polygon class="st2" points="162.6,773.1 446,714.6 439.2,571.4 203.1,431.2 	"/>
</g>
<text transform="matrix(1 0 0 1 84 926)" class="st3 st4 st5">NERDWISE</text>
</svg>
